<svg xmlns="http://www.w3.org/2000/svg" viewBox="0 0 73 50">
  <path fill="var(--background)" d="M22.64 39A9.65 9.65 0 0113 29.33a9.65 9.65 0 0111.6-9.46 14.47 14.47 0 0128.17 4.63 7.24 7.24 0 010 14.5H22.64zm0 0A9.65 9.65 0 0113 29.33a9.65 9.65 0 0111.6-9.46 14.47 14.47 0 0128.17 4.63 7.24 7.24 0 010 14.5H22.64zm0 0A9.65 9.65 0 0113 29.33a9.65 9.65 0 0111.6-9.46 14.47 14.47 0 0128.17 4.63 7.24 7.24 0 010 14.5H22.64z"/>
  <path fill="var(--color)" d="M22.64 37h30.13a5.24 5.24 0 000-10.5h-2v-2a12.47 12.47 0 00-24.27-4l-.57 1.68-1.74-.36A7.66 7.66 0 1022.64 37zM62 31.75c0 5.1-4.13 9.25-9.23 9.25H22.64A11.65 11.65 0 0111 29.33 11.65 11.65 0 0123.31 17.7a16.47 16.47 0 0131.36 5A9.25 9.25 0 0162 31.76z"/>
</svg>